<svg width="512" height="463" viewBox="0 0 512 463" xmlns="http://www.w3.org/2000/svg" xmlns:sketch="http://www.bohemiancoding.com/sketch/ns"><title>Rectangle 13 + Sass-logo + Group + News + Group 2</title><desc>Created with Sketch.</desc><g sketch:type="MSLayerGroup" fill="none"><g><g id="Group" sketch:type="MSShapeGroup"><path fill="#DADBDF" d="M32 127h457v336h-457z"/><path fill-opacity=".833" fill="#6B717F" d="M40 135h457v320h-457z"/><path d="M53.5 441.5l-21 21" stroke="#808C99" stroke-linecap="square"/><path fill="#DADBDF" d="M48 111h464v336h-464z"/><path d="M48 447h464l-16.091 16h-463.909l16-16z" fill="#DADBDF"/></g><g fill="#B37399" sketch:type="MSShapeGroup" fill-opacity=".2"><path d="M320 223h160v208h-160z"/><path d="M112 295h192v8h-192z"/><path d="M112 279h192v8h-192z"/><path d="M80 223h224v32h-224z"/><path d="M80 311h224v8h-224z"/><path d="M80 327h224v8h-224z"/><path d="M80 343h224v8h-224z"/><path d="M176 359h128v8h-128z"/><path d="M176 375h128v8h-128z"/><path d="M176 391h128v8h-128z"/><path d="M176 407h128v8h-128z"/><path d="M80 423h224v8h-224z"/><path d="M80 359h80v56h-80z"/><path d="M80 143h64v8h-64z"/><path d="M160 143h128v8h-128z"/><path d="M304 143h128v8h-128z"/><path d="M448 143h34v8h-34z"/><path d="M80 199h400v8h-400z"/><path d="M80 159h400v32h-400z"/></g><text sketch:type="MSTextLayer" font-family="American Typewriter" font-size="128" letter-spacing="-1.6" fill="#6B717F" transform="translate(-32 -16) translate(64 127)"><tspan x="77" y="287">NEW</tspan><tspan x="374.92" y="287">S</tspan></text></g><path d="M311.216 241.893c-1.393-.963-1.161-4.076 3.42-13.771 1.798-3.807 5.902-10.215 13.036-16.339.826 2.519 1.33 4.934 1.316 7.182-.092 15-11.109 20.602-17.772 22.928zm-58.641 12.986c-1.867.949-3.579 1.545-4.375 1.085-.583-.339.77-1.588.77-1.588s9.522-9.95 13.272-14.482c2.182-2.635 4.711-5.762 7.467-9.261.022.35.034.696.034 1.039-.028 11.922-11.882 19.971-17.169 23.207zm-76.121-35.284c-4.405 10.432-13.624 37.122-19.235 35.691-4.817-1.228-7.75-21.516-.962-41.483 3.417-10.051 10.715-22.061 15.003-26.722 6.903-7.501 14.503-9.954 16.35-6.913 2.354 3.875-8.394 32.888-11.156 39.427zm-92.136 60.848c-12.647 13.403-30.316 18.469-37.893 14.202-8.181-4.608-4.941-24.341 10.579-38.564 9.46-8.668 21.671-16.652 29.773-21.569 1.843-1.078 4.552-2.66 7.844-4.577l.854-.469-.012-.02 1.959-1.138c5.647 20.245.172 38.068-13.103 52.136zm294.303-96.388c-15.344.079-28.634 3.657-39.774 8.991-4.075-7.9-8.198-14.849-8.891-20.017-.809-6.033-1.746-9.631-.769-16.818.977-7.186 5.257-17.363 5.194-18.125-.063-.762-.96-4.423-9.81-4.485-8.85-.062-16.421 1.654-17.311 3.924-.891 2.27-2.595 7.379-3.655 12.707-1.55 7.796-17.67 35.599-26.822 50.145-2.993-5.677-5.539-10.682-6.069-14.641-.808-6.033-1.746-9.631-.769-16.818.977-7.186 5.257-17.363 5.194-18.126-.063-.762-.959-4.422-9.81-4.485-8.85-.062-16.421 1.654-17.311 3.924-.891 2.27-1.843 7.575-3.655 12.707-1.813 5.132-23.241 51.512-28.852 63.534-2.86 6.125-5.348 11.046-7.105 14.407l-.011-.019-.295.601c-1.504 2.861-2.399 4.443-2.399 4.443l.026.059c-1.193 2.101-2.471 4.052-3.104 4.052-.442 0-1.328-5.592.193-13.267 3.188-16.089 10.848-41.18 10.772-42.044-.04-.443 1.423-4.815-5.002-7.101-6.246-2.221-8.47 1.483-9.04 1.495-.552.012-.963 1.309-.963 1.309s6.958-28.216-13.272-28.216c-12.648 0-30.173 13.441-38.807 25.624-5.448 2.887-17.107 9.07-29.477 15.672-4.751 2.535-9.599 5.127-14.196 7.587-.313-.336-.624-.673-.946-1.007-24.53-25.425-69.877-43.408-67.954-77.589.7-12.426 5.146-45.146 87.135-84.835 67.162-32.512 120.929-23.566 130.221-3.737 13.274 28.327-28.735 80.977-98.484 88.572-26.575 2.894-40.567-7.111-44.048-10.838-3.663-3.923-4.21-4.099-5.578-3.364-2.228 1.2-.816 4.663 0 6.727 2.083 5.266 10.628 14.602 25.198 19.247 12.817 4.086 44.018 6.331 81.749-7.848 42.261-15.88 75.26-60.056 65.567-96.981-9.857-37.555-73.955-49.901-134.62-28.964-36.105 12.461-75.19 32.018-103.292 57.553-33.414 30.363-38.742 56.789-36.547 67.831 7.801 39.234 63.467 64.783 85.758 83.719l-3.07 1.646c-11.176 5.371-53.608 26.943-64.222 49.736-12.039 25.855 1.917 44.404 11.156 46.902 28.627 7.738 58.003-6.18 73.79-29.056 15.784-22.87 13.856-52.65 6.612-66.243l-.281-.501c2.885-1.659 5.828-3.346 8.745-5.01 5.688-3.244 11.271-6.272 16.117-8.833-2.711 7.217-4.697 15.867-5.73 28.359-1.213 14.676 4.978 33.647 13.08 41.11 3.567 3.286 7.859 3.363 10.579 3.363 9.428 0 13.73-7.619 18.466-16.631 5.81-11.052 10.964-23.918 10.964-23.918s-6.469 34.756 11.157 34.756c6.422 0 12.883-8.09 15.76-12.215l.012.069.494-.807c.667-.99 1.044-1.621 1.044-1.621l.034-.179c2.581-4.355 8.307-14.282 16.894-30.654 11.094-21.152 21.735-47.65 21.735-47.65s.99 6.479 4.232 17.191c1.907 6.303 5.96 13.271 9.157 19.953-2.573 3.469-4.156 5.461-4.156 5.461l.043.104c-2.057 2.652-4.362 5.514-6.775 8.304-8.756 10.131-19.185 21.7-20.582 25.039-1.645 3.934-1.256 6.828 1.923 9.156 2.323 1.7 6.457 1.964 10.772 1.682 7.869-.514 13.405-2.41 16.137-3.564 4.258-1.463 9.217-3.764 13.871-7.087 8.589-6.135 13.77-14.91 13.272-26.534-.276-6.406-2.379-12.756-5.039-18.75.78-1.088 1.561-2.187 2.345-3.3 13.541-19.23 24.044-40.362 24.044-40.362s.99 6.478 4.232 17.191c1.641 5.423 4.878 11.338 7.789 17.14-12.732 10.05-20.628 21.727-23.37 29.389-5.069 14.168-1.099 20.588 6.348 22.05 3.373.663 8.137-.839 11.721-2.313 4.459-1.436 9.818-3.829 14.823-7.403 8.589-6.135 16.847-14.725 16.35-26.348-.228-5.292-1.705-10.544-3.709-15.59 10.792-4.367 24.766-6.796 42.564-4.777 38.181 4.331 45.672 27.491 44.24 37.185-1.432 9.694-9.441 15.022-12.119 16.631-2.677 1.609-3.494 2.167-3.269 3.364.325 1.739 1.564 1.672 3.846 1.299 3.143-.515 20.05-7.885 20.774-25.778.919-22.716-21.484-47.668-61.167-47.463z" fill="#c69" sketch:type="MSShapeGroup"/></g></svg>